<!DOCTYPE svg PUBLIC "-//W3C//DTD SVG 1.1//EN" "http://www.w3.org/Graphics/SVG/1.1/DTD/svg11.dtd">
<!-- Uploaded to: SVG Repo, www.svgrepo.com, Transformed by: SVG Repo Mixer Tools -->
<svg fill="#0095ff" width="800px" height="800px" viewBox="0 0 512 512" id="_x30_1" version="1.1" xml:space="preserve" xmlns="http://www.w3.org/2000/svg" xmlns:xlink="http://www.w3.org/1999/xlink">
<g id="SVGRepo_bgCarrier" stroke-width="0"/>
<g id="SVGRepo_tracerCarrier" stroke-linecap="round" stroke-linejoin="round"/>
<g id="SVGRepo_iconCarrier"> <g> <path d="M437.11,74.98c-99.974-99.974-262.064-99.973-362.038,0.001l0,0c-12.09-12.09-32.776-5.827-36.129,10.939L24.801,156.63 c-2.996,14.979,10.211,28.186,25.19,25.19l70.711-14.142c16.766-3.353,23.029-24.039,10.939-36.129l0,0 c68.622-68.622,180.279-68.622,248.901-0.001c68.9,68.899,68.9,180.003,0,248.903c-68.623,68.622-180.279,68.622-248.901-0.001 C97.329,346.14,80.174,301.07,80.174,256h-0.082c0-22.215-18.109-40.2-40.37-39.998c-22.076,0.2-39.694,18.688-39.629,40.765 c0.194,65.26,25.187,130.46,74.98,180.253c99.974,99.974,262.064,99.974,362.038,0.001C536.84,337.291,536.84,174.709,437.11,74.98 z"/> <path d="M336.837,267.978l-50.746-29.298v-88.596c0-16.569-13.431-30-30-30h0c-16.569,0-30,13.431-30,30V256 c0,11.103,6.036,20.79,15.002,25.978l-0.002,0.003l65.746,37.958c14.349,8.284,32.696,3.368,40.981-10.981v0 C356.102,294.61,351.186,276.262,336.837,267.978z"/> </g> </g>
</svg>