<!DOCTYPE svg PUBLIC "-//W3C//DTD SVG 1.1//EN" "http://www.w3.org/Graphics/SVG/1.1/DTD/svg11.dtd">
<!-- Uploaded to: SVG Repo, www.svgrepo.com, Transformed by: SVG Repo Mixer Tools -->
<svg fill="#ffffff" height="800px" width="800px" version="1.1" id="Layer_1" xmlns="http://www.w3.org/2000/svg" xmlns:xlink="http://www.w3.org/1999/xlink" viewBox="0 0 511.99 511.99" xml:space="preserve" stroke="#ffffff">
<g id="SVGRepo_bgCarrier" stroke-width="0"/>
<g id="SVGRepo_tracerCarrier" stroke-linecap="round" stroke-linejoin="round"/>
<g id="SVGRepo_iconCarrier"> <g> <g> <g> <path d="M317.302,420.683c2.667-4.032,2.261-9.365-0.981-12.971c-5.547-6.187-9.024-13.803-10.069-22.08l-2.325-18.517 c-1.195-9.557,1.003-19.285,6.187-27.392c1.195-1.877,1.771-4.075,1.664-6.293l-0.128-3.947c0-21.76,8.085-58.987,62.229-63.893 c1.301-0.128,2.581-0.469,3.755-1.067c17.152-8.448,33.173-8.64,38.443-8.704c2.773-0.043,5.44-1.152,7.403-3.115l64.064-64.064 c2.88-2.88,3.861-7.125,2.56-10.965c-1.301-3.861-4.672-6.635-8.704-7.168l-154.496-20.459L254.88,5.643 c-3.605-7.211-15.488-7.211-19.093,0l-72.021,144.405L9.27,170.507c-4.032,0.533-7.403,3.307-8.704,7.168 c-1.301,3.84-0.32,8.085,2.56,10.965l113.301,113.301L85.558,456.352c-0.811,3.989,0.747,8.085,3.989,10.56 c1.899,1.429,4.181,2.197,6.485,2.197c1.621,0,3.264-0.384,4.779-1.131l144.555-72.299l58.069,29.035 C308.235,427.104,314.315,425.205,317.302,420.683z"/> <path d="M467.936,444.64l-32.021-7.979l-1.344-5.376c8.32-9.173,14.208-20.885,16.661-33.045 c5.696-2.944,9.835-8.533,10.667-15.253l2.325-18.56c0.704-5.611-1.024-11.264-4.757-15.552 c-1.152-1.344-2.475-2.475-3.904-3.435l0.555-11.307l1.963-1.984c5.483-5.824,12.907-18.325,1.152-36.309 c-5.611-8.555-17.109-18.752-40.192-18.752c-6.784,0-22.123,0-37.013,9.344c-43.904,1.515-49.067,25.195-49.067,43.051 c0,3.52,0.619,10.133,1.237,15.616c-1.579,1.003-3.029,2.219-4.288,3.648c-3.776,4.288-5.547,10.005-4.843,15.68l2.325,18.539 c0.875,6.955,5.291,12.715,11.797,15.552c2.411,11.648,7.979,22.912,15.765,31.851l-1.557,6.272l-32.021,7.979 c-25.941,6.507-44.053,29.717-44.053,56.469c0,5.888,4.779,10.667,10.667,10.667h213.333c5.888,0,10.667-4.8,10.667-10.688 C511.99,474.336,493.878,451.125,467.936,444.64z"/> </g> </g> </g> </g>
</svg>